<?xml version="1.0" encoding="UTF-8" standalone="no"?>
<!DOCTYPE svg PUBLIC "-//W3C//DTD SVG 1.1//EN"
 "http://www.w3.org/Graphics/SVG/1.1/DTD/svg11.dtd">
<!-- Generated by graphviz version 13.1.0 (20250701.0955)
 -->
<!-- Title: interface/driver_sht30_interface.h Pages: 1 -->
<svg width="905pt" height="176pt"
 viewBox="0.00 0.00 905.00 176.00" xmlns="http://www.w3.org/2000/svg" xmlns:xlink="http://www.w3.org/1999/xlink">
<g id="graph0" class="graph" transform="scale(1 1) rotate(0) translate(4 172)">
<title>interface/driver_sht30_interface.h</title>
<!-- Node1 -->
<g id="Node000001" class="node">
<title>Node1</title>
<g id="a_Node000001"><a xlink:title="driver sht30 interface header file">
<polygon fill="#999999" stroke="#666666" points="490.38,-168 380.62,-168 380.62,-136 490.38,-136 490.38,-168"/>
<text xml:space="preserve" text-anchor="start" x="388.62" y="-154.5" font-family="Helvetica,sans-Serif" font-size="10.00">interface/driver_sht30</text>
<text xml:space="preserve" text-anchor="middle" x="435.5" y="-142.5" font-family="Helvetica,sans-Serif" font-size="10.00">_interface.h</text>
</a>
</g>
</g>
<!-- Node2 -->
<g id="Node000002" class="node">
<title>Node2</title>
<g id="a_Node000002"><a xlink:href="driver__sht30__alert_8h.html" target="_top" xlink:title="driver sht30 alert header file">
<polygon fill="white" stroke="#666666" points="109,-100 0,-100 0,-68 109,-68 109,-100"/>
<text xml:space="preserve" text-anchor="start" x="8" y="-86.5" font-family="Helvetica,sans-Serif" font-size="10.00">example/driver_sht30</text>
<text xml:space="preserve" text-anchor="middle" x="54.5" y="-74.5" font-family="Helvetica,sans-Serif" font-size="10.00">_alert.h</text>
</a>
</g>
</g>
<!-- Node1&#45;&gt;Node2 -->
<g id="edge1_Node000001_Node000002" class="edge">
<title>Node1&#45;&gt;Node2</title>
<g id="a_edge1_Node000001_Node000002"><a xlink:title=" ">
<path fill="none" stroke="#63b8ff" d="M368.9,-141.8C304.39,-132.54 203.89,-117.19 117.5,-100 114.85,-99.47 112.15,-98.91 109.42,-98.33"/>
<polygon fill="#63b8ff" stroke="#63b8ff" points="368.23,-145.24 378.63,-143.19 369.22,-138.31 368.23,-145.24"/>
</a>
</g>
</g>
<!-- Node4 -->
<g id="Node000004" class="node">
<title>Node4</title>
<g id="a_Node000004"><a xlink:href="driver__sht30__basic_8h.html" target="_top" xlink:title="driver sht30 basic header file">
<polygon fill="white" stroke="#666666" points="236,-100 127,-100 127,-68 236,-68 236,-100"/>
<text xml:space="preserve" text-anchor="start" x="135" y="-86.5" font-family="Helvetica,sans-Serif" font-size="10.00">example/driver_sht30</text>
<text xml:space="preserve" text-anchor="middle" x="181.5" y="-74.5" font-family="Helvetica,sans-Serif" font-size="10.00">_basic.h</text>
</a>
</g>
</g>
<!-- Node1&#45;&gt;Node4 -->
<g id="edge3_Node000001_Node000004" class="edge">
<title>Node1&#45;&gt;Node4</title>
<g id="a_edge3_Node000001_Node000004"><a xlink:title=" ">
<path fill="none" stroke="#63b8ff" d="M369.29,-133.8C327.85,-123.03 275.1,-109.32 236.07,-99.18"/>
<polygon fill="#63b8ff" stroke="#63b8ff" points="368.36,-137.17 378.92,-136.3 370.12,-130.4 368.36,-137.17"/>
</a>
</g>
</g>
<!-- Node6 -->
<g id="Node000006" class="node">
<title>Node6</title>
<g id="a_Node000006"><a xlink:href="driver__sht30__shot_8h.html" target="_top" xlink:title="driver sht30 shot header file">
<polygon fill="white" stroke="#666666" points="363,-100 254,-100 254,-68 363,-68 363,-100"/>
<text xml:space="preserve" text-anchor="start" x="262" y="-86.5" font-family="Helvetica,sans-Serif" font-size="10.00">example/driver_sht30</text>
<text xml:space="preserve" text-anchor="middle" x="308.5" y="-74.5" font-family="Helvetica,sans-Serif" font-size="10.00">_shot.h</text>
</a>
</g>
</g>
<!-- Node1&#45;&gt;Node6 -->
<g id="edge5_Node000001_Node000006" class="edge">
<title>Node1&#45;&gt;Node6</title>
<g id="a_edge5_Node000001_Node000006"><a xlink:title=" ">
<path fill="none" stroke="#63b8ff" d="M395.74,-130.34C377.09,-120.65 355.25,-109.3 338.09,-100.38"/>
<polygon fill="#63b8ff" stroke="#63b8ff" points="393.89,-133.32 404.38,-134.83 397.12,-127.11 393.89,-133.32"/>
</a>
</g>
</g>
<!-- Node8 -->
<g id="Node000008" class="node">
<title>Node8</title>
<g id="a_Node000008"><a xlink:href="driver__sht30__interface__template_8c.html" target="_top" xlink:title="driver sht30 interface template source file">
<polygon fill="white" stroke="#666666" points="490.38,-100 380.62,-100 380.62,-68 490.38,-68 490.38,-100"/>
<text xml:space="preserve" text-anchor="start" x="388.62" y="-86.5" font-family="Helvetica,sans-Serif" font-size="10.00">interface/driver_sht30</text>
<text xml:space="preserve" text-anchor="middle" x="435.5" y="-74.5" font-family="Helvetica,sans-Serif" font-size="10.00">_interface_template.c</text>
</a>
</g>
</g>
<!-- Node1&#45;&gt;Node8 -->
<g id="edge7_Node000001_Node000008" class="edge">
<title>Node1&#45;&gt;Node8</title>
<g id="a_edge7_Node000001_Node000008"><a xlink:title=" ">
<path fill="none" stroke="#63b8ff" d="M435.5,-124.31C435.5,-116.12 435.5,-107.38 435.5,-100.22"/>
<polygon fill="#63b8ff" stroke="#63b8ff" points="432,-124.18 435.5,-134.18 439,-124.18 432,-124.18"/>
</a>
</g>
</g>
<!-- Node9 -->
<g id="Node000009" class="node">
<title>Node9</title>
<g id="a_Node000009"><a xlink:href="driver__sht30__alert__test_8h.html" target="_top" xlink:title="driver sht30 alert test header file">
<polygon fill="white" stroke="#666666" points="620.88,-100 508.12,-100 508.12,-68 620.88,-68 620.88,-100"/>
<text xml:space="preserve" text-anchor="start" x="516.12" y="-86.5" font-family="Helvetica,sans-Serif" font-size="10.00">test/driver_sht30_alert</text>
<text xml:space="preserve" text-anchor="middle" x="564.5" y="-74.5" font-family="Helvetica,sans-Serif" font-size="10.00">_test.h</text>
</a>
</g>
</g>
<!-- Node1&#45;&gt;Node9 -->
<g id="edge8_Node000001_Node000009" class="edge">
<title>Node1&#45;&gt;Node9</title>
<g id="a_edge8_Node000001_Node000009"><a xlink:title=" ">
<path fill="none" stroke="#63b8ff" d="M475.88,-130.34C494.83,-120.65 517.01,-109.3 534.44,-100.38"/>
<polygon fill="#63b8ff" stroke="#63b8ff" points="474.4,-127.17 467.09,-134.84 477.59,-133.4 474.4,-127.17"/>
</a>
</g>
</g>
<!-- Node11 -->
<g id="Node000011" class="node">
<title>Node11</title>
<g id="a_Node000011"><a xlink:href="driver__sht30__read__test_8h.html" target="_top" xlink:title="driver sht30 read test header file">
<polygon fill="white" stroke="#666666" points="751.88,-100 639.12,-100 639.12,-68 751.88,-68 751.88,-100"/>
<text xml:space="preserve" text-anchor="start" x="647.12" y="-86.5" font-family="Helvetica,sans-Serif" font-size="10.00">test/driver_sht30_read</text>
<text xml:space="preserve" text-anchor="middle" x="695.5" y="-74.5" font-family="Helvetica,sans-Serif" font-size="10.00">_test.h</text>
</a>
</g>
</g>
<!-- Node1&#45;&gt;Node11 -->
<g id="edge10_Node000001_Node000011" class="edge">
<title>Node1&#45;&gt;Node11</title>
<g id="a_edge10_Node000001_Node000011"><a xlink:title=" ">
<path fill="none" stroke="#63b8ff" d="M501.68,-134.2C543.98,-123.46 598.28,-109.68 638.64,-99.43"/>
<polygon fill="#63b8ff" stroke="#63b8ff" points="500.94,-130.78 492.11,-136.63 502.66,-137.56 500.94,-130.78"/>
</a>
</g>
</g>
<!-- Node13 -->
<g id="Node000013" class="node">
<title>Node13</title>
<g id="a_Node000013"><a xlink:href="driver__sht30__register__test_8h.html" target="_top" xlink:title="driver sht30 register test header file">
<polygon fill="white" stroke="#666666" points="896.62,-100 770.38,-100 770.38,-68 896.62,-68 896.62,-100"/>
<text xml:space="preserve" text-anchor="start" x="778.38" y="-86.5" font-family="Helvetica,sans-Serif" font-size="10.00">test/driver_sht30_register</text>
<text xml:space="preserve" text-anchor="middle" x="833.5" y="-74.5" font-family="Helvetica,sans-Serif" font-size="10.00">_test.h</text>
</a>
</g>
</g>
<!-- Node1&#45;&gt;Node13 -->
<g id="edge12_Node000001_Node000013" class="edge">
<title>Node1&#45;&gt;Node13</title>
<g id="a_edge12_Node000001_Node000013"><a xlink:title=" ">
<path fill="none" stroke="#63b8ff" d="M501.87,-141.52C567.66,-131.9 671.25,-116.16 760.5,-100 763.68,-99.42 766.94,-98.82 770.23,-98.19"/>
<polygon fill="#63b8ff" stroke="#63b8ff" points="501.73,-138 492.34,-142.91 502.74,-144.93 501.73,-138"/>
</a>
</g>
</g>
<!-- Node3 -->
<g id="Node000003" class="node">
<title>Node3</title>
<g id="a_Node000003"><a xlink:href="driver__sht30__alert_8c.html" target="_top" xlink:title="driver sht30 alert source file">
<polygon fill="white" stroke="#666666" points="109,-32 0,-32 0,0 109,0 109,-32"/>
<text xml:space="preserve" text-anchor="start" x="8" y="-18.5" font-family="Helvetica,sans-Serif" font-size="10.00">example/driver_sht30</text>
<text xml:space="preserve" text-anchor="middle" x="54.5" y="-6.5" font-family="Helvetica,sans-Serif" font-size="10.00">_alert.c</text>
</a>
</g>
</g>
<!-- Node2&#45;&gt;Node3 -->
<g id="edge2_Node000002_Node000003" class="edge">
<title>Node2&#45;&gt;Node3</title>
<g id="a_edge2_Node000002_Node000003"><a xlink:title=" ">
<path fill="none" stroke="#63b8ff" d="M54.5,-56.31C54.5,-48.12 54.5,-39.38 54.5,-32.22"/>
<polygon fill="#63b8ff" stroke="#63b8ff" points="51,-56.18 54.5,-66.18 58,-56.18 51,-56.18"/>
</a>
</g>
</g>
<!-- Node5 -->
<g id="Node000005" class="node">
<title>Node5</title>
<g id="a_Node000005"><a xlink:href="driver__sht30__basic_8c.html" target="_top" xlink:title="driver sht30 basic source file">
<polygon fill="white" stroke="#666666" points="236,-32 127,-32 127,0 236,0 236,-32"/>
<text xml:space="preserve" text-anchor="start" x="135" y="-18.5" font-family="Helvetica,sans-Serif" font-size="10.00">example/driver_sht30</text>
<text xml:space="preserve" text-anchor="middle" x="181.5" y="-6.5" font-family="Helvetica,sans-Serif" font-size="10.00">_basic.c</text>
</a>
</g>
</g>
<!-- Node4&#45;&gt;Node5 -->
<g id="edge4_Node000004_Node000005" class="edge">
<title>Node4&#45;&gt;Node5</title>
<g id="a_edge4_Node000004_Node000005"><a xlink:title=" ">
<path fill="none" stroke="#63b8ff" d="M181.5,-56.31C181.5,-48.12 181.5,-39.38 181.5,-32.22"/>
<polygon fill="#63b8ff" stroke="#63b8ff" points="178,-56.18 181.5,-66.18 185,-56.18 178,-56.18"/>
</a>
</g>
</g>
<!-- Node7 -->
<g id="Node000007" class="node">
<title>Node7</title>
<g id="a_Node000007"><a xlink:href="driver__sht30__shot_8c.html" target="_top" xlink:title="driver sht30 shot source file">
<polygon fill="white" stroke="#666666" points="363,-32 254,-32 254,0 363,0 363,-32"/>
<text xml:space="preserve" text-anchor="start" x="262" y="-18.5" font-family="Helvetica,sans-Serif" font-size="10.00">example/driver_sht30</text>
<text xml:space="preserve" text-anchor="middle" x="308.5" y="-6.5" font-family="Helvetica,sans-Serif" font-size="10.00">_shot.c</text>
</a>
</g>
</g>
<!-- Node6&#45;&gt;Node7 -->
<g id="edge6_Node000006_Node000007" class="edge">
<title>Node6&#45;&gt;Node7</title>
<g id="a_edge6_Node000006_Node000007"><a xlink:title=" ">
<path fill="none" stroke="#63b8ff" d="M308.5,-56.31C308.5,-48.12 308.5,-39.38 308.5,-32.22"/>
<polygon fill="#63b8ff" stroke="#63b8ff" points="305,-56.18 308.5,-66.18 312,-56.18 305,-56.18"/>
</a>
</g>
</g>
<!-- Node10 -->
<g id="Node000010" class="node">
<title>Node10</title>
<g id="a_Node000010"><a xlink:href="driver__sht30__alert__test_8c.html" target="_top" xlink:title="driver sht30 alert test source file">
<polygon fill="white" stroke="#666666" points="620.88,-32 508.12,-32 508.12,0 620.88,0 620.88,-32"/>
<text xml:space="preserve" text-anchor="start" x="516.12" y="-18.5" font-family="Helvetica,sans-Serif" font-size="10.00">test/driver_sht30_alert</text>
<text xml:space="preserve" text-anchor="middle" x="564.5" y="-6.5" font-family="Helvetica,sans-Serif" font-size="10.00">_test.c</text>
</a>
</g>
</g>
<!-- Node9&#45;&gt;Node10 -->
<g id="edge9_Node000009_Node000010" class="edge">
<title>Node9&#45;&gt;Node10</title>
<g id="a_edge9_Node000009_Node000010"><a xlink:title=" ">
<path fill="none" stroke="#63b8ff" d="M564.5,-56.31C564.5,-48.12 564.5,-39.38 564.5,-32.22"/>
<polygon fill="#63b8ff" stroke="#63b8ff" points="561,-56.18 564.5,-66.18 568,-56.18 561,-56.18"/>
</a>
</g>
</g>
<!-- Node12 -->
<g id="Node000012" class="node">
<title>Node12</title>
<g id="a_Node000012"><a xlink:href="driver__sht30__read__test_8c.html" target="_top" xlink:title="driver sht30 read test source file">
<polygon fill="white" stroke="#666666" points="751.88,-32 639.12,-32 639.12,0 751.88,0 751.88,-32"/>
<text xml:space="preserve" text-anchor="start" x="647.12" y="-18.5" font-family="Helvetica,sans-Serif" font-size="10.00">test/driver_sht30_read</text>
<text xml:space="preserve" text-anchor="middle" x="695.5" y="-6.5" font-family="Helvetica,sans-Serif" font-size="10.00">_test.c</text>
</a>
</g>
</g>
<!-- Node11&#45;&gt;Node12 -->
<g id="edge11_Node000011_Node000012" class="edge">
<title>Node11&#45;&gt;Node12</title>
<g id="a_edge11_Node000011_Node000012"><a xlink:title=" ">
<path fill="none" stroke="#63b8ff" d="M695.5,-56.31C695.5,-48.12 695.5,-39.38 695.5,-32.22"/>
<polygon fill="#63b8ff" stroke="#63b8ff" points="692,-56.18 695.5,-66.18 699,-56.18 692,-56.18"/>
</a>
</g>
</g>
<!-- Node14 -->
<g id="Node000014" class="node">
<title>Node14</title>
<g id="a_Node000014"><a xlink:href="driver__sht30__register__test_8c.html" target="_top" xlink:title="driver sht30 register test source file">
<polygon fill="white" stroke="#666666" points="896.62,-32 770.38,-32 770.38,0 896.62,0 896.62,-32"/>
<text xml:space="preserve" text-anchor="start" x="778.38" y="-18.5" font-family="Helvetica,sans-Serif" font-size="10.00">test/driver_sht30_register</text>
<text xml:space="preserve" text-anchor="middle" x="833.5" y="-6.5" font-family="Helvetica,sans-Serif" font-size="10.00">_test.c</text>
</a>
</g>
</g>
<!-- Node13&#45;&gt;Node14 -->
<g id="edge13_Node000013_Node000014" class="edge">
<title>Node13&#45;&gt;Node14</title>
<g id="a_edge13_Node000013_Node000014"><a xlink:title=" ">
<path fill="none" stroke="#63b8ff" d="M833.5,-56.31C833.5,-48.12 833.5,-39.38 833.5,-32.22"/>
<polygon fill="#63b8ff" stroke="#63b8ff" points="830,-56.18 833.5,-66.18 837,-56.18 830,-56.18"/>
</a>
</g>
</g>
</g>
</svg>
