<?xml version="1.0" encoding="UTF-8" standalone="no"?>
<!DOCTYPE svg PUBLIC "-//W3C//DTD SVG 1.1//EN"
 "http://www.w3.org/Graphics/SVG/1.1/DTD/svg11.dtd">
<!-- Generated by graphviz version 13.1.0 (20250701.0955)
 -->
<!-- Title: sht30_shot_init Pages: 1 -->
<svg width="406pt" height="532pt"
 viewBox="0.00 0.00 406.00 532.00" xmlns="http://www.w3.org/2000/svg" xmlns:xlink="http://www.w3.org/1999/xlink">
<g id="graph0" class="graph" transform="scale(1 1) rotate(0) translate(4 528)">
<title>sht30_shot_init</title>
<!-- Node1 -->
<g id="Node000001" class="node">
<title>Node1</title>
<g id="a_Node000001"><a xlink:title="shot example init">
<polygon fill="#999999" stroke="#666666" points="82,-278 0,-278 0,-258 82,-258 82,-278"/>
<text xml:space="preserve" text-anchor="middle" x="41" y="-264.5" font-family="Helvetica,sans-Serif" font-size="10.00">sht30_shot_init</text>
</a>
</g>
</g>
<!-- Node2 -->
<g id="Node000002" class="node">
<title>Node2</title>
<g id="a_Node000002"><a xlink:href="group__sht30__base__driver.html#gafeef3ac479006d80e46bb310bea4c801" target="_top" xlink:title="close the chip">
<polygon fill="white" stroke="#666666" points="217.25,-524 148.75,-524 148.75,-504 217.25,-504 217.25,-524"/>
<text xml:space="preserve" text-anchor="middle" x="183" y="-510.5" font-family="Helvetica,sans-Serif" font-size="10.00">sht30_deinit</text>
</a>
</g>
</g>
<!-- Node1&#45;&gt;Node2 -->
<g id="edge1_Node000001_Node000002" class="edge">
<title>Node1&#45;&gt;Node2</title>
<g id="a_edge1_Node000001_Node000002"><a xlink:title=" ">
<path fill="none" stroke="#63b8ff" d="M42.26,-278.33C43.72,-313.9 53.44,-432.63 118,-495 123.42,-500.24 130.23,-504.04 137.36,-506.8"/>
<polygon fill="#63b8ff" stroke="#63b8ff" points="136.26,-510.13 146.85,-509.79 138.36,-503.45 136.26,-510.13"/>
</a>
</g>
</g>
<!-- Node3 -->
<g id="Node000003" class="node">
<title>Node3</title>
<g id="a_Node000003"><a xlink:href="group__sht30__base__driver.html#ga4e2bcd47163039567b8bbb67a36c3035" target="_top" xlink:title="initialize the chip">
<polygon fill="white" stroke="#666666" points="212,-486 154,-486 154,-466 212,-466 212,-486"/>
<text xml:space="preserve" text-anchor="middle" x="183" y="-472.5" font-family="Helvetica,sans-Serif" font-size="10.00">sht30_init</text>
</a>
</g>
</g>
<!-- Node1&#45;&gt;Node3 -->
<g id="edge2_Node000001_Node000003" class="edge">
<title>Node1&#45;&gt;Node3</title>
<g id="a_edge2_Node000001_Node000003"><a xlink:title=" ">
<path fill="none" stroke="#63b8ff" d="M43.36,-278.36C47.95,-309.17 65.59,-401.29 118,-452 124.91,-458.69 133.86,-463.55 142.87,-467.06"/>
<polygon fill="#63b8ff" stroke="#63b8ff" points="141.72,-470.37 152.31,-470.24 143.95,-463.73 141.72,-470.37"/>
</a>
</g>
</g>
<!-- Node4 -->
<g id="Node000004" class="node">
<title>Node4</title>
<g id="a_Node000004"><a xlink:href="group__sht30__interface__driver.html#ga3374b6f9e17f78f4ba804440b06e7c5c" target="_top" xlink:title="interface print format data">
<polygon fill="white" stroke="#666666" points="398.25,-319 284,-319 284,-287 398.25,-287 398.25,-319"/>
<text xml:space="preserve" text-anchor="start" x="292" y="-305.5" font-family="Helvetica,sans-Serif" font-size="10.00">sht30_interface_debug</text>
<text xml:space="preserve" text-anchor="middle" x="341.12" y="-293.5" font-family="Helvetica,sans-Serif" font-size="10.00">_print</text>
</a>
</g>
</g>
<!-- Node1&#45;&gt;Node4 -->
<g id="edge3_Node000001_Node000004" class="edge">
<title>Node1&#45;&gt;Node4</title>
<g id="a_edge3_Node000001_Node000004"><a xlink:title=" ">
<path fill="none" stroke="#63b8ff" d="M43.46,-278.15C48.17,-306.54 65.78,-386.82 118,-419 167.19,-449.31 195.97,-444.12 248,-419 286.4,-400.46 313.71,-357.27 328.18,-329.14"/>
<polygon fill="#63b8ff" stroke="#63b8ff" points="331.14,-331.06 332.42,-320.54 324.86,-327.96 331.14,-331.06"/>
</a>
</g>
</g>
<!-- Node5 -->
<g id="Node000005" class="node">
<title>Node5</title>
<g id="a_Node000005"><a xlink:href="group__sht30__interface__driver.html#ga94657bb5470a92b24d805759a6436f35" target="_top" xlink:title="interface delay ms">
<polygon fill="white" stroke="#666666" points="248,-410 118,-410 118,-390 248,-390 248,-410"/>
<text xml:space="preserve" text-anchor="middle" x="183" y="-396.5" font-family="Helvetica,sans-Serif" font-size="10.00">sht30_interface_delay_ms</text>
</a>
</g>
</g>
<!-- Node1&#45;&gt;Node5 -->
<g id="edge4_Node000001_Node000005" class="edge">
<title>Node1&#45;&gt;Node5</title>
<g id="a_edge4_Node000001_Node000005"><a xlink:title=" ">
<path fill="none" stroke="#63b8ff" d="M45.99,-278.17C55.19,-300.31 80.09,-353.14 118,-381 119.75,-382.29 121.59,-383.49 123.49,-384.61"/>
<polygon fill="#63b8ff" stroke="#63b8ff" points="121.58,-387.56 132.09,-388.88 124.69,-381.29 121.58,-387.56"/>
</a>
</g>
</g>
<!-- Node6 -->
<g id="Node000006" class="node">
<title>Node6</title>
<g id="a_Node000006"><a xlink:href="group__sht30__interface__driver.html#ga329ba6e22612ff70c19e81689e40d72d" target="_top" xlink:title="interface iic bus deinit">
<polygon fill="white" stroke="#666666" points="231.88,-372 134.12,-372 134.12,-340 231.88,-340 231.88,-372"/>
<text xml:space="preserve" text-anchor="start" x="142.12" y="-358.5" font-family="Helvetica,sans-Serif" font-size="10.00">sht30_interface_iic</text>
<text xml:space="preserve" text-anchor="middle" x="183" y="-346.5" font-family="Helvetica,sans-Serif" font-size="10.00">_deinit</text>
</a>
</g>
</g>
<!-- Node1&#45;&gt;Node6 -->
<g id="edge5_Node000001_Node000006" class="edge">
<title>Node1&#45;&gt;Node6</title>
<g id="a_edge5_Node000001_Node000006"><a xlink:title=" ">
<path fill="none" stroke="#63b8ff" d="M52.01,-278.13C65.83,-291.66 92.01,-315.69 118,-331 120.13,-332.25 122.33,-333.47 124.59,-334.64"/>
<polygon fill="#63b8ff" stroke="#63b8ff" points="122.8,-337.67 133.33,-338.86 125.84,-331.36 122.8,-337.67"/>
</a>
</g>
</g>
<!-- Node7 -->
<g id="Node000007" class="node">
<title>Node7</title>
<g id="a_Node000007"><a xlink:href="group__sht30__interface__driver.html#ga2e05f722f22d4447ce27b7678cc48c1a" target="_top" xlink:title="interface iic bus init">
<polygon fill="white" stroke="#666666" points="240.88,-322 125.12,-322 125.12,-302 240.88,-302 240.88,-322"/>
<text xml:space="preserve" text-anchor="middle" x="183" y="-308.5" font-family="Helvetica,sans-Serif" font-size="10.00">sht30_interface_iic_init</text>
</a>
</g>
</g>
<!-- Node1&#45;&gt;Node7 -->
<g id="edge6_Node000001_Node000007" class="edge">
<title>Node1&#45;&gt;Node7</title>
<g id="a_edge6_Node000001_Node000007"><a xlink:title=" ">
<path fill="none" stroke="#63b8ff" d="M72.99,-278.42C86.75,-282.99 103.15,-288.36 118,-293 123.53,-294.73 129.34,-296.51 135.1,-298.25"/>
<polygon fill="#63b8ff" stroke="#63b8ff" points="134.03,-301.58 144.61,-301.1 136.04,-294.88 134.03,-301.58"/>
</a>
</g>
</g>
<!-- Node8 -->
<g id="Node000008" class="node">
<title>Node8</title>
<g id="a_Node000008"><a xlink:href="group__sht30__interface__driver.html#gaba8d5c62b177f7f3abb14b694e3caa38" target="_top" xlink:title="interface iic bus read with 16 bits register address">
<polygon fill="white" stroke="#666666" points="237.12,-284 128.88,-284 128.88,-252 237.12,-252 237.12,-284"/>
<text xml:space="preserve" text-anchor="start" x="136.88" y="-270.5" font-family="Helvetica,sans-Serif" font-size="10.00">sht30_interface_iic</text>
<text xml:space="preserve" text-anchor="middle" x="183" y="-258.5" font-family="Helvetica,sans-Serif" font-size="10.00">_scl_read_address16</text>
</a>
</g>
</g>
<!-- Node1&#45;&gt;Node8 -->
<g id="edge7_Node000001_Node000008" class="edge">
<title>Node1&#45;&gt;Node8</title>
<g id="a_edge7_Node000001_Node000008"><a xlink:title=" ">
<path fill="none" stroke="#63b8ff" d="M82.49,-268C93.39,-268 105.45,-268 117.3,-268"/>
<polygon fill="#63b8ff" stroke="#63b8ff" points="117.05,-271.5 127.05,-268 117.05,-264.5 117.05,-271.5"/>
</a>
</g>
</g>
<!-- Node9 -->
<g id="Node000009" class="node">
<title>Node9</title>
<g id="a_Node000009"><a xlink:href="group__sht30__interface__driver.html#ga4b623473e35942df94e0aeb885ecae31" target="_top" xlink:title="interface iic bus write with 16 bits register address">
<polygon fill="white" stroke="#666666" points="231.88,-234 134.12,-234 134.12,-202 231.88,-202 231.88,-234"/>
<text xml:space="preserve" text-anchor="start" x="142.12" y="-220.5" font-family="Helvetica,sans-Serif" font-size="10.00">sht30_interface_iic</text>
<text xml:space="preserve" text-anchor="middle" x="183" y="-208.5" font-family="Helvetica,sans-Serif" font-size="10.00">_write_address16</text>
</a>
</g>
</g>
<!-- Node1&#45;&gt;Node9 -->
<g id="edge8_Node000001_Node000009" class="edge">
<title>Node1&#45;&gt;Node9</title>
<g id="a_edge8_Node000001_Node000009"><a xlink:title=" ">
<path fill="none" stroke="#63b8ff" d="M71.35,-257.52C86.97,-251.94 106.71,-244.89 125.19,-238.29"/>
<polygon fill="#63b8ff" stroke="#63b8ff" points="126.22,-241.64 134.46,-234.98 123.86,-235.05 126.22,-241.64"/>
</a>
</g>
</g>
<!-- Node10 -->
<g id="Node000010" class="node">
<title>Node10</title>
<g id="a_Node000010"><a xlink:href="group__sht30__interface__driver.html#ga5587717b349727a3df3ed2fa60f61a21" target="_top" xlink:title="interface receive callback">
<polygon fill="white" stroke="#666666" points="242.75,-184 123.25,-184 123.25,-152 242.75,-152 242.75,-184"/>
<text xml:space="preserve" text-anchor="start" x="131.25" y="-170.5" font-family="Helvetica,sans-Serif" font-size="10.00">sht30_interface_receive</text>
<text xml:space="preserve" text-anchor="middle" x="183" y="-158.5" font-family="Helvetica,sans-Serif" font-size="10.00">_callback</text>
</a>
</g>
</g>
<!-- Node1&#45;&gt;Node10 -->
<g id="edge9_Node000001_Node000010" class="edge">
<title>Node1&#45;&gt;Node10</title>
<g id="a_edge9_Node000001_Node000010"><a xlink:title=" ">
<path fill="none" stroke="#63b8ff" d="M50.07,-257.69C62.93,-241.86 89.54,-211.47 118,-193 119.84,-191.81 121.74,-190.66 123.69,-189.55"/>
<polygon fill="#63b8ff" stroke="#63b8ff" points="125.12,-192.75 132.41,-185.06 121.92,-186.53 125.12,-192.75"/>
</a>
</g>
</g>
<!-- Node11 -->
<g id="Node000011" class="node">
<title>Node11</title>
<g id="a_Node000011"><a xlink:href="group__sht30__base__driver.html#gaa68a1e258875b22fab56affb4ca00708" target="_top" xlink:title="set the iic address pin">
<polygon fill="white" stroke="#666666" points="233.38,-134 132.62,-134 132.62,-114 233.38,-114 233.38,-134"/>
<text xml:space="preserve" text-anchor="middle" x="183" y="-120.5" font-family="Helvetica,sans-Serif" font-size="10.00">sht30_set_addr_pin</text>
</a>
</g>
</g>
<!-- Node1&#45;&gt;Node11 -->
<g id="edge11_Node000001_Node000011" class="edge">
<title>Node1&#45;&gt;Node11</title>
<g id="a_edge11_Node000001_Node000011"><a xlink:title=" ">
<path fill="none" stroke="#63b8ff" d="M45.29,-257.84C53.54,-234.04 77.36,-174.32 118,-143 119.55,-141.81 121.17,-140.69 122.84,-139.64"/>
<polygon fill="#63b8ff" stroke="#63b8ff" points="124.36,-142.8 131.62,-135.08 121.13,-136.59 124.36,-142.8"/>
</a>
</g>
</g>
<!-- Node12 -->
<g id="Node000012" class="node">
<title>Node12</title>
<g id="a_Node000012"><a xlink:href="group__sht30__base__driver.html#ga859d865b9e4e270d5506aacbb4ecbcf7" target="_top" xlink:title="set the chip art">
<polygon fill="white" stroke="#666666" points="220.62,-96 145.38,-96 145.38,-76 220.62,-76 220.62,-96"/>
<text xml:space="preserve" text-anchor="middle" x="183" y="-82.5" font-family="Helvetica,sans-Serif" font-size="10.00">sht30_set_art</text>
</a>
</g>
</g>
<!-- Node1&#45;&gt;Node12 -->
<g id="edge12_Node000001_Node000012" class="edge">
<title>Node1&#45;&gt;Node12</title>
<g id="a_edge12_Node000001_Node000012"><a xlink:title=" ">
<path fill="none" stroke="#63b8ff" d="M43.75,-257.84C49.2,-229.29 68.58,-147.61 118,-105 122.77,-100.88 128.41,-97.66 134.32,-95.13"/>
<polygon fill="#63b8ff" stroke="#63b8ff" points="135.45,-98.45 143.71,-91.81 133.11,-91.85 135.45,-98.45"/>
</a>
</g>
</g>
<!-- Node13 -->
<g id="Node000013" class="node">
<title>Node13</title>
<g id="a_Node000013"><a xlink:href="group__sht30__base__driver.html#ga97ebef0db0c6054ed652a78820c5cc87" target="_top" xlink:title="enable or disable the chip heater">
<polygon fill="white" stroke="#666666" points="228.5,-58 137.5,-58 137.5,-38 228.5,-38 228.5,-58"/>
<text xml:space="preserve" text-anchor="middle" x="183" y="-44.5" font-family="Helvetica,sans-Serif" font-size="10.00">sht30_set_heater</text>
</a>
</g>
</g>
<!-- Node1&#45;&gt;Node13 -->
<g id="edge13_Node000001_Node000013" class="edge">
<title>Node1&#45;&gt;Node13</title>
<g id="a_edge13_Node000001_Node000013"><a xlink:title=" ">
<path fill="none" stroke="#63b8ff" d="M42.74,-257.93C45.71,-225.29 59.53,-121.36 118,-67 120.72,-64.47 123.75,-62.28 126.99,-60.38"/>
<polygon fill="#63b8ff" stroke="#63b8ff" points="128.3,-63.64 135.8,-56.16 125.27,-57.33 128.3,-63.64"/>
</a>
</g>
</g>
<!-- Node14 -->
<g id="Node000014" class="node">
<title>Node14</title>
<g id="a_Node000014"><a xlink:href="group__sht30__base__driver.html#ga39acd935e4e0aaebd5fc5dea20914a54" target="_top" xlink:title="set the measurement repeatability">
<polygon fill="white" stroke="#666666" points="241.25,-20 124.75,-20 124.75,0 241.25,0 241.25,-20"/>
<text xml:space="preserve" text-anchor="middle" x="183" y="-6.5" font-family="Helvetica,sans-Serif" font-size="10.00">sht30_set_repeatability</text>
</a>
</g>
</g>
<!-- Node1&#45;&gt;Node14 -->
<g id="edge14_Node000001_Node000014" class="edge">
<title>Node1&#45;&gt;Node14</title>
<g id="a_edge14_Node000001_Node000014"><a xlink:title=" ">
<path fill="none" stroke="#63b8ff" d="M42.06,-257.66C42.84,-220.89 50.55,-95.16 118,-29 118.76,-28.25 119.55,-27.54 120.36,-26.85"/>
<polygon fill="#63b8ff" stroke="#63b8ff" points="122.26,-29.79 128.63,-21.33 118.37,-23.97 122.26,-29.79"/>
</a>
</g>
</g>
<!-- Node10&#45;&gt;Node4 -->
<g id="edge10_Node000010_Node000004" class="edge">
<title>Node10&#45;&gt;Node4</title>
<g id="a_edge10_Node000010_Node000004"><a xlink:title=" ">
<path fill="none" stroke="#63b8ff" d="M233.55,-184.41C238.62,-186.94 243.54,-189.8 248,-193 280,-215.99 307.64,-252.58 324.08,-277.17"/>
<polygon fill="#63b8ff" stroke="#63b8ff" points="321,-278.86 329.39,-285.32 326.86,-275.03 321,-278.86"/>
</a>
</g>
</g>
</g>
</svg>
