<?xml version="1.0" encoding="UTF-8" standalone="no"?>
<!DOCTYPE svg PUBLIC "-//W3C//DTD SVG 1.1//EN"
 "http://www.w3.org/Graphics/SVG/1.1/DTD/svg11.dtd">
<!-- Generated by graphviz version 13.1.0 (20250701.0955)
 -->
<!-- Title: sht30_alert_init Pages: 1 -->
<svg width="267pt" height="720pt"
 viewBox="0.00 0.00 267.00 720.00" xmlns="http://www.w3.org/2000/svg" xmlns:xlink="http://www.w3.org/1999/xlink">
<g id="graph0" class="graph" transform="scale(1 1) rotate(0) translate(4 716)">
<title>sht30_alert_init</title>
<!-- Node1 -->
<g id="Node000001" class="node">
<title>Node1</title>
<g id="a_Node000001"><a xlink:title="alert example init">
<polygon fill="#999999" stroke="#666666" points="82,-366 0,-366 0,-346 82,-346 82,-366"/>
<text xml:space="preserve" text-anchor="middle" x="41" y="-352.5" font-family="Helvetica,sans-Serif" font-size="10.00">sht30_alert_init</text>
</a>
</g>
</g>
<!-- Node2 -->
<g id="Node000002" class="node">
<title>Node2</title>
<g id="a_Node000002"><a xlink:href="group__sht30__base__driver.html#ga973c93d583a2fefd14cfcaf5cc473c24" target="_top" xlink:title="alert limit convert to register raw data">
<polygon fill="white" stroke="#666666" points="251,-712 126.25,-712 126.25,-680 251,-680 251,-712"/>
<text xml:space="preserve" text-anchor="start" x="134.25" y="-698.5" font-family="Helvetica,sans-Serif" font-size="10.00">sht30_alert_limit_convert</text>
<text xml:space="preserve" text-anchor="middle" x="188.62" y="-686.5" font-family="Helvetica,sans-Serif" font-size="10.00">_to_register</text>
</a>
</g>
</g>
<!-- Node1&#45;&gt;Node2 -->
<g id="edge1_Node000001_Node000002" class="edge">
<title>Node1&#45;&gt;Node2</title>
<g id="a_edge1_Node000001_Node000002"><a xlink:title=" ">
<path fill="none" stroke="#63b8ff" d="M43.18,-366.34C48.94,-415.34 75.63,-623.79 118,-671 118.36,-671.41 118.74,-671.81 119.11,-672.2"/>
<polygon fill="#63b8ff" stroke="#63b8ff" points="116.85,-674.87 126.77,-678.57 121.32,-669.48 116.85,-674.87"/>
</a>
</g>
</g>
<!-- Node3 -->
<g id="Node000003" class="node">
<title>Node3</title>
<g id="a_Node000003"><a xlink:href="group__sht30__base__driver.html#gaf5002b30bd448f5d7b9bbe042e130fac" target="_top" xlink:title="clear the current status">
<polygon fill="white" stroke="#666666" points="237.88,-662 139.38,-662 139.38,-642 237.88,-642 237.88,-662"/>
<text xml:space="preserve" text-anchor="middle" x="188.62" y="-648.5" font-family="Helvetica,sans-Serif" font-size="10.00">sht30_clear_status</text>
</a>
</g>
</g>
<!-- Node1&#45;&gt;Node3 -->
<g id="edge2_Node000001_Node000003" class="edge">
<title>Node1&#45;&gt;Node3</title>
<g id="a_edge2_Node000001_Node000003"><a xlink:title=" ">
<path fill="none" stroke="#63b8ff" d="M41.48,-366.29C40.04,-406.63 40.37,-555.48 118,-633 121.2,-636.2 124.88,-638.87 128.85,-641.1"/>
<polygon fill="#63b8ff" stroke="#63b8ff" points="127.24,-644.21 137.79,-645.17 130.13,-637.84 127.24,-644.21"/>
</a>
</g>
</g>
<!-- Node4 -->
<g id="Node000004" class="node">
<title>Node4</title>
<g id="a_Node000004"><a xlink:href="group__sht30__base__driver.html#gafeef3ac479006d80e46bb310bea4c801" target="_top" xlink:title="close the chip">
<polygon fill="white" stroke="#666666" points="222.88,-624 154.38,-624 154.38,-604 222.88,-604 222.88,-624"/>
<text xml:space="preserve" text-anchor="middle" x="188.62" y="-610.5" font-family="Helvetica,sans-Serif" font-size="10.00">sht30_deinit</text>
</a>
</g>
</g>
<!-- Node1&#45;&gt;Node4 -->
<g id="edge3_Node000001_Node000004" class="edge">
<title>Node1&#45;&gt;Node4</title>
<g id="a_edge3_Node000001_Node000004"><a xlink:title=" ">
<path fill="none" stroke="#63b8ff" d="M42.01,-366.4C42.62,-403.34 49.82,-529.59 118,-595 124.95,-601.67 134.01,-606.05 143.29,-608.91"/>
<polygon fill="#63b8ff" stroke="#63b8ff" points="142.14,-612.23 152.69,-611.25 143.83,-605.44 142.14,-612.23"/>
</a>
</g>
</g>
<!-- Node5 -->
<g id="Node000005" class="node">
<title>Node5</title>
<g id="a_Node000005"><a xlink:href="group__sht30__base__driver.html#ga4e2bcd47163039567b8bbb67a36c3035" target="_top" xlink:title="initialize the chip">
<polygon fill="white" stroke="#666666" points="217.62,-586 159.62,-586 159.62,-566 217.62,-566 217.62,-586"/>
<text xml:space="preserve" text-anchor="middle" x="188.62" y="-572.5" font-family="Helvetica,sans-Serif" font-size="10.00">sht30_init</text>
</a>
</g>
</g>
<!-- Node1&#45;&gt;Node5 -->
<g id="edge4_Node000001_Node000005" class="edge">
<title>Node1&#45;&gt;Node5</title>
<g id="a_edge4_Node000001_Node000005"><a xlink:title=" ">
<path fill="none" stroke="#63b8ff" d="M42.7,-366.12C45.51,-398.92 58.93,-503.29 118,-557 126.33,-564.57 137.38,-569.17 148.22,-571.94"/>
<polygon fill="#63b8ff" stroke="#63b8ff" points="147.34,-575.34 157.84,-573.92 148.75,-568.48 147.34,-575.34"/>
</a>
</g>
</g>
<!-- Node6 -->
<g id="Node000006" class="node">
<title>Node6</title>
<g id="a_Node000006"><a xlink:href="group__sht30__interface__driver.html#ga3374b6f9e17f78f4ba804440b06e7c5c" target="_top" xlink:title="interface print format data">
<polygon fill="white" stroke="#666666" points="245.75,-548 131.5,-548 131.5,-516 245.75,-516 245.75,-548"/>
<text xml:space="preserve" text-anchor="start" x="139.5" y="-534.5" font-family="Helvetica,sans-Serif" font-size="10.00">sht30_interface_debug</text>
<text xml:space="preserve" text-anchor="middle" x="188.62" y="-522.5" font-family="Helvetica,sans-Serif" font-size="10.00">_print</text>
</a>
</g>
</g>
<!-- Node1&#45;&gt;Node6 -->
<g id="edge5_Node000001_Node000006" class="edge">
<title>Node1&#45;&gt;Node6</title>
<g id="a_edge5_Node000001_Node000006"><a xlink:title=" ">
<path fill="none" stroke="#63b8ff" d="M44.38,-366.44C51.11,-393.57 72.73,-466.93 118,-507 119.23,-508.09 120.52,-509.13 121.84,-510.13"/>
<polygon fill="#63b8ff" stroke="#63b8ff" points="119.55,-512.82 129.86,-515.29 123.34,-506.93 119.55,-512.82"/>
</a>
</g>
</g>
<!-- Node7 -->
<g id="Node000007" class="node">
<title>Node7</title>
<g id="a_Node000007"><a xlink:href="group__sht30__interface__driver.html#ga94657bb5470a92b24d805759a6436f35" target="_top" xlink:title="interface delay ms">
<polygon fill="white" stroke="#666666" points="253.62,-498 123.62,-498 123.62,-478 253.62,-478 253.62,-498"/>
<text xml:space="preserve" text-anchor="middle" x="188.62" y="-484.5" font-family="Helvetica,sans-Serif" font-size="10.00">sht30_interface_delay_ms</text>
</a>
</g>
</g>
<!-- Node1&#45;&gt;Node7 -->
<g id="edge6_Node000001_Node000007" class="edge">
<title>Node1&#45;&gt;Node7</title>
<g id="a_edge6_Node000001_Node000007"><a xlink:title=" ">
<path fill="none" stroke="#63b8ff" d="M45.94,-366.23C55.06,-388.5 79.78,-441.57 118,-469 119.79,-470.29 121.67,-471.49 123.61,-472.61"/>
<polygon fill="#63b8ff" stroke="#63b8ff" points="121.86,-475.65 132.38,-476.89 124.93,-469.36 121.86,-475.65"/>
</a>
</g>
</g>
<!-- Node8 -->
<g id="Node000008" class="node">
<title>Node8</title>
<g id="a_Node000008"><a xlink:href="group__sht30__interface__driver.html#ga329ba6e22612ff70c19e81689e40d72d" target="_top" xlink:title="interface iic bus deinit">
<polygon fill="white" stroke="#666666" points="237.5,-460 139.75,-460 139.75,-428 237.5,-428 237.5,-460"/>
<text xml:space="preserve" text-anchor="start" x="147.75" y="-446.5" font-family="Helvetica,sans-Serif" font-size="10.00">sht30_interface_iic</text>
<text xml:space="preserve" text-anchor="middle" x="188.62" y="-434.5" font-family="Helvetica,sans-Serif" font-size="10.00">_deinit</text>
</a>
</g>
</g>
<!-- Node1&#45;&gt;Node8 -->
<g id="edge7_Node000001_Node000008" class="edge">
<title>Node1&#45;&gt;Node8</title>
<g id="a_edge7_Node000001_Node000008"><a xlink:title=" ">
<path fill="none" stroke="#63b8ff" d="M51.95,-366.23C65.7,-379.88 91.8,-404.05 118,-419 121.56,-421.03 125.31,-422.94 129.15,-424.73"/>
<polygon fill="#63b8ff" stroke="#63b8ff" points="127.5,-427.83 138.06,-428.59 130.28,-421.41 127.5,-427.83"/>
</a>
</g>
</g>
<!-- Node9 -->
<g id="Node000009" class="node">
<title>Node9</title>
<g id="a_Node000009"><a xlink:href="group__sht30__interface__driver.html#ga2e05f722f22d4447ce27b7678cc48c1a" target="_top" xlink:title="interface iic bus init">
<polygon fill="white" stroke="#666666" points="246.5,-410 130.75,-410 130.75,-390 246.5,-390 246.5,-410"/>
<text xml:space="preserve" text-anchor="middle" x="188.62" y="-396.5" font-family="Helvetica,sans-Serif" font-size="10.00">sht30_interface_iic_init</text>
</a>
</g>
</g>
<!-- Node1&#45;&gt;Node9 -->
<g id="edge8_Node000001_Node000009" class="edge">
<title>Node1&#45;&gt;Node9</title>
<g id="a_edge8_Node000001_Node000009"><a xlink:title=" ">
<path fill="none" stroke="#63b8ff" d="M72.58,-366.46C86.4,-371.08 102.97,-376.48 118,-381 124.23,-382.87 130.79,-384.77 137.3,-386.6"/>
<polygon fill="#63b8ff" stroke="#63b8ff" points="136.1,-389.89 146.67,-389.2 137.97,-383.15 136.1,-389.89"/>
</a>
</g>
</g>
<!-- Node10 -->
<g id="Node000010" class="node">
<title>Node10</title>
<g id="a_Node000010"><a xlink:href="group__sht30__interface__driver.html#ga2ad7a08fd8fb954e555b6d8e293d5f09" target="_top" xlink:title="interface iic bus read with 16 bits register address">
<polygon fill="white" stroke="#666666" points="237.5,-372 139.75,-372 139.75,-340 237.5,-340 237.5,-372"/>
<text xml:space="preserve" text-anchor="start" x="147.75" y="-358.5" font-family="Helvetica,sans-Serif" font-size="10.00">sht30_interface_iic</text>
<text xml:space="preserve" text-anchor="middle" x="188.62" y="-346.5" font-family="Helvetica,sans-Serif" font-size="10.00">_read_address16</text>
</a>
</g>
</g>
<!-- Node1&#45;&gt;Node10 -->
<g id="edge9_Node000001_Node000010" class="edge">
<title>Node1&#45;&gt;Node10</title>
<g id="a_edge9_Node000001_Node000010"><a xlink:title=" ">
<path fill="none" stroke="#63b8ff" d="M82.18,-356C96.4,-356 112.73,-356 128.21,-356"/>
<polygon fill="#63b8ff" stroke="#63b8ff" points="127.78,-359.5 137.78,-356 127.78,-352.5 127.78,-359.5"/>
</a>
</g>
</g>
<!-- Node11 -->
<g id="Node000011" class="node">
<title>Node11</title>
<g id="a_Node000011"><a xlink:href="group__sht30__interface__driver.html#ga4b623473e35942df94e0aeb885ecae31" target="_top" xlink:title="interface iic bus write with 16 bits register address">
<polygon fill="white" stroke="#666666" points="237.5,-322 139.75,-322 139.75,-290 237.5,-290 237.5,-322"/>
<text xml:space="preserve" text-anchor="start" x="147.75" y="-308.5" font-family="Helvetica,sans-Serif" font-size="10.00">sht30_interface_iic</text>
<text xml:space="preserve" text-anchor="middle" x="188.62" y="-296.5" font-family="Helvetica,sans-Serif" font-size="10.00">_write_address16</text>
</a>
</g>
</g>
<!-- Node1&#45;&gt;Node11 -->
<g id="edge10_Node000001_Node000011" class="edge">
<title>Node1&#45;&gt;Node11</title>
<g id="a_edge10_Node000001_Node000011"><a xlink:title=" ">
<path fill="none" stroke="#63b8ff" d="M72.53,-345.52C88.85,-339.91 109.51,-332.82 128.8,-326.2"/>
<polygon fill="#63b8ff" stroke="#63b8ff" points="129.9,-329.52 138.22,-322.96 127.63,-322.9 129.9,-329.52"/>
</a>
</g>
</g>
<!-- Node12 -->
<g id="Node000012" class="node">
<title>Node12</title>
<g id="a_Node000012"><a xlink:href="group__sht30__base__driver.html#gaa68a1e258875b22fab56affb4ca00708" target="_top" xlink:title="set the iic address pin">
<polygon fill="white" stroke="#666666" points="239,-272 138.25,-272 138.25,-252 239,-252 239,-272"/>
<text xml:space="preserve" text-anchor="middle" x="188.62" y="-258.5" font-family="Helvetica,sans-Serif" font-size="10.00">sht30_set_addr_pin</text>
</a>
</g>
</g>
<!-- Node1&#45;&gt;Node12 -->
<g id="edge11_Node000001_Node000012" class="edge">
<title>Node1&#45;&gt;Node12</title>
<g id="a_edge11_Node000001_Node000012"><a xlink:title=" ">
<path fill="none" stroke="#63b8ff" d="M49.64,-345.58C62.11,-329.32 88.44,-298.02 118,-281 121,-279.27 124.16,-277.7 127.41,-276.26"/>
<polygon fill="#63b8ff" stroke="#63b8ff" points="128.57,-279.57 136.63,-272.68 126.04,-273.04 128.57,-279.57"/>
</a>
</g>
</g>
<!-- Node13 -->
<g id="Node000013" class="node">
<title>Node13</title>
<g id="a_Node000013"><a xlink:href="group__sht30__base__driver.html#ga859d865b9e4e270d5506aacbb4ecbcf7" target="_top" xlink:title="set the chip art">
<polygon fill="white" stroke="#666666" points="226.25,-234 151,-234 151,-214 226.25,-214 226.25,-234"/>
<text xml:space="preserve" text-anchor="middle" x="188.62" y="-220.5" font-family="Helvetica,sans-Serif" font-size="10.00">sht30_set_art</text>
</a>
</g>
</g>
<!-- Node1&#45;&gt;Node13 -->
<g id="edge12_Node000001_Node000013" class="edge">
<title>Node1&#45;&gt;Node13</title>
<g id="a_edge12_Node000001_Node000013"><a xlink:title=" ">
<path fill="none" stroke="#63b8ff" d="M45.94,-345.77C55.06,-323.5 79.78,-270.43 118,-243 124.5,-238.33 132.1,-234.81 139.83,-232.15"/>
<polygon fill="#63b8ff" stroke="#63b8ff" points="140.7,-235.55 149.31,-229.37 138.73,-228.83 140.7,-235.55"/>
</a>
</g>
</g>
<!-- Node14 -->
<g id="Node000014" class="node">
<title>Node14</title>
<g id="a_Node000014"><a xlink:href="group__sht30__base__driver.html#ga97ebef0db0c6054ed652a78820c5cc87" target="_top" xlink:title="enable or disable the chip heater">
<polygon fill="white" stroke="#666666" points="234.12,-196 143.12,-196 143.12,-176 234.12,-176 234.12,-196"/>
<text xml:space="preserve" text-anchor="middle" x="188.62" y="-182.5" font-family="Helvetica,sans-Serif" font-size="10.00">sht30_set_heater</text>
</a>
</g>
</g>
<!-- Node1&#45;&gt;Node14 -->
<g id="edge13_Node000001_Node000014" class="edge">
<title>Node1&#45;&gt;Node14</title>
<g id="a_edge13_Node000001_Node000014"><a xlink:title=" ">
<path fill="none" stroke="#63b8ff" d="M44.12,-345.75C50.31,-318.45 70.97,-243.46 118,-205 122.26,-201.52 127.11,-198.67 132.22,-196.34"/>
<polygon fill="#63b8ff" stroke="#63b8ff" points="133.45,-199.62 141.56,-192.79 130.97,-193.07 133.45,-199.62"/>
</a>
</g>
</g>
<!-- Node15 -->
<g id="Node000015" class="node">
<title>Node15</title>
<g id="a_Node000015"><a xlink:href="group__sht30__base__driver.html#gab669ee858721fdefb84cbd4ecbdb1091" target="_top" xlink:title="set high alert limit">
<polygon fill="white" stroke="#666666" points="241.62,-158 135.62,-158 135.62,-126 241.62,-126 241.62,-158"/>
<text xml:space="preserve" text-anchor="start" x="143.62" y="-144.5" font-family="Helvetica,sans-Serif" font-size="10.00">sht30_set_high_alert</text>
<text xml:space="preserve" text-anchor="middle" x="188.62" y="-132.5" font-family="Helvetica,sans-Serif" font-size="10.00">_limit</text>
</a>
</g>
</g>
<!-- Node1&#45;&gt;Node15 -->
<g id="edge14_Node000001_Node000015" class="edge">
<title>Node1&#45;&gt;Node15</title>
<g id="a_edge14_Node000001_Node000015"><a xlink:title=" ">
<path fill="none" stroke="#63b8ff" d="M43.18,-345.78C47.32,-314.49 64,-219.01 118,-167 120.34,-164.74 122.9,-162.69 125.61,-160.82"/>
<polygon fill="#63b8ff" stroke="#63b8ff" points="127.15,-163.98 134.01,-155.91 123.61,-157.94 127.15,-163.98"/>
</a>
</g>
</g>
<!-- Node16 -->
<g id="Node000016" class="node">
<title>Node16</title>
<g id="a_Node000016"><a xlink:href="group__sht30__base__driver.html#gafe87069e3922f421ed2a160775765b0d" target="_top" xlink:title="set low alert limit">
<polygon fill="white" stroke="#666666" points="240.12,-108 137.12,-108 137.12,-76 240.12,-76 240.12,-108"/>
<text xml:space="preserve" text-anchor="start" x="145.12" y="-94.5" font-family="Helvetica,sans-Serif" font-size="10.00">sht30_set_low_alert</text>
<text xml:space="preserve" text-anchor="middle" x="188.62" y="-82.5" font-family="Helvetica,sans-Serif" font-size="10.00">_limit</text>
</a>
</g>
</g>
<!-- Node1&#45;&gt;Node16 -->
<g id="edge15_Node000001_Node000016" class="edge">
<title>Node1&#45;&gt;Node16</title>
<g id="a_edge15_Node000001_Node000016"><a xlink:title=" ">
<path fill="none" stroke="#63b8ff" d="M42.19,-345.79C43.41,-309.45 52.43,-185.03 118,-117 120.71,-114.19 123.76,-111.69 127.03,-109.47"/>
<polygon fill="#63b8ff" stroke="#63b8ff" points="128.47,-112.68 135.42,-104.69 125,-106.6 128.47,-112.68"/>
</a>
</g>
</g>
<!-- Node17 -->
<g id="Node000017" class="node">
<title>Node17</title>
<g id="a_Node000017"><a xlink:href="group__sht30__base__driver.html#ga39acd935e4e0aaebd5fc5dea20914a54" target="_top" xlink:title="set the measurement repeatability">
<polygon fill="white" stroke="#666666" points="246.88,-58 130.38,-58 130.38,-38 246.88,-38 246.88,-58"/>
<text xml:space="preserve" text-anchor="middle" x="188.62" y="-44.5" font-family="Helvetica,sans-Serif" font-size="10.00">sht30_set_repeatability</text>
</a>
</g>
</g>
<!-- Node1&#45;&gt;Node17 -->
<g id="edge16_Node000001_Node000017" class="edge">
<title>Node1&#45;&gt;Node17</title>
<g id="a_edge16_Node000001_Node000017"><a xlink:title=" ">
<path fill="none" stroke="#63b8ff" d="M43.35,-345.52C49.59,-298.58 77.1,-108.28 118,-67 118.88,-66.11 119.8,-65.26 120.75,-64.45"/>
<polygon fill="#63b8ff" stroke="#63b8ff" points="122.51,-67.49 128.85,-59 118.6,-61.68 122.51,-67.49"/>
</a>
</g>
</g>
<!-- Node18 -->
<g id="Node000018" class="node">
<title>Node18</title>
<g id="a_Node000018"><a xlink:href="group__sht30__base__driver.html#ga2a22612a45d166fba7ed9b6099ba49f7" target="_top" xlink:title="start reading">
<polygon fill="white" stroke="#666666" points="259.25,-20 118,-20 118,0 259.25,0 259.25,-20"/>
<text xml:space="preserve" text-anchor="middle" x="188.62" y="-6.5" font-family="Helvetica,sans-Serif" font-size="10.00">sht30_start_continuous_read</text>
</a>
</g>
</g>
<!-- Node1&#45;&gt;Node18 -->
<g id="edge17_Node000001_Node000018" class="edge">
<title>Node1&#45;&gt;Node18</title>
<g id="a_edge17_Node000001_Node000018"><a xlink:title=" ">
<path fill="none" stroke="#63b8ff" d="M43,-345.54C48.06,-294.97 72.32,-76.45 118,-29 118.72,-28.25 119.47,-27.53 120.24,-26.83"/>
<polygon fill="#63b8ff" stroke="#63b8ff" points="121.95,-29.91 128.09,-21.28 117.91,-24.2 121.95,-29.91"/>
</a>
</g>
</g>
</g>
</svg>
