<?xml version="1.0" encoding="UTF-8" standalone="no"?>
<!DOCTYPE svg PUBLIC "-//W3C//DTD SVG 1.1//EN"
 "http://www.w3.org/Graphics/SVG/1.1/DTD/svg11.dtd">
<!-- Generated by graphviz version 13.1.0 (20250701.0955)
 -->
<!-- Title: sht30_basic_init Pages: 1 -->
<svg width="422pt" height="570pt"
 viewBox="0.00 0.00 422.00 570.00" xmlns="http://www.w3.org/2000/svg" xmlns:xlink="http://www.w3.org/1999/xlink">
<g id="graph0" class="graph" transform="scale(1 1) rotate(0) translate(4 566)">
<title>sht30_basic_init</title>
<!-- Node1 -->
<g id="Node000001" class="node">
<title>Node1</title>
<g id="a_Node000001"><a xlink:title="basic example init">
<polygon fill="#999999" stroke="#666666" points="86.5,-291 0,-291 0,-271 86.5,-271 86.5,-291"/>
<text xml:space="preserve" text-anchor="middle" x="43.25" y="-277.5" font-family="Helvetica,sans-Serif" font-size="10.00">sht30_basic_init</text>
</a>
</g>
</g>
<!-- Node2 -->
<g id="Node000002" class="node">
<title>Node2</title>
<g id="a_Node000002"><a xlink:href="group__sht30__base__driver.html#gafeef3ac479006d80e46bb310bea4c801" target="_top" xlink:title="close the chip">
<polygon fill="white" stroke="#666666" points="227.38,-562 158.88,-562 158.88,-542 227.38,-542 227.38,-562"/>
<text xml:space="preserve" text-anchor="middle" x="193.12" y="-548.5" font-family="Helvetica,sans-Serif" font-size="10.00">sht30_deinit</text>
</a>
</g>
</g>
<!-- Node1&#45;&gt;Node2 -->
<g id="edge1_Node000001_Node000002" class="edge">
<title>Node1&#45;&gt;Node2</title>
<g id="a_edge1_Node000001_Node000002"><a xlink:title=" ">
<path fill="none" stroke="#63b8ff" d="M44.16,-291.42C44.43,-329.66 50.67,-463.62 122.5,-533 129.43,-539.69 138.48,-544.08 147.75,-546.94"/>
<polygon fill="#63b8ff" stroke="#63b8ff" points="146.6,-550.26 157.15,-549.28 148.29,-543.47 146.6,-550.26"/>
</a>
</g>
</g>
<!-- Node3 -->
<g id="Node000003" class="node">
<title>Node3</title>
<g id="a_Node000003"><a xlink:href="group__sht30__base__driver.html#ga4e2bcd47163039567b8bbb67a36c3035" target="_top" xlink:title="initialize the chip">
<polygon fill="white" stroke="#666666" points="222.12,-524 164.12,-524 164.12,-504 222.12,-504 222.12,-524"/>
<text xml:space="preserve" text-anchor="middle" x="193.12" y="-510.5" font-family="Helvetica,sans-Serif" font-size="10.00">sht30_init</text>
</a>
</g>
</g>
<!-- Node1&#45;&gt;Node3 -->
<g id="edge2_Node000001_Node000003" class="edge">
<title>Node1&#45;&gt;Node3</title>
<g id="a_edge2_Node000001_Node000003"><a xlink:title=" ">
<path fill="none" stroke="#63b8ff" d="M45.08,-291.36C48.33,-324.97 63.11,-432.15 122.5,-490 130.81,-498.1 141.98,-503.47 152.94,-507.03"/>
<polygon fill="#63b8ff" stroke="#63b8ff" points="151.67,-510.31 162.25,-509.62 153.55,-503.57 151.67,-510.31"/>
</a>
</g>
</g>
<!-- Node4 -->
<g id="Node000004" class="node">
<title>Node4</title>
<g id="a_Node000004"><a xlink:href="group__sht30__interface__driver.html#ga3374b6f9e17f78f4ba804440b06e7c5c" target="_top" xlink:title="interface print format data">
<polygon fill="white" stroke="#666666" points="414,-357 299.75,-357 299.75,-325 414,-325 414,-357"/>
<text xml:space="preserve" text-anchor="start" x="307.75" y="-343.5" font-family="Helvetica,sans-Serif" font-size="10.00">sht30_interface_debug</text>
<text xml:space="preserve" text-anchor="middle" x="356.88" y="-331.5" font-family="Helvetica,sans-Serif" font-size="10.00">_print</text>
</a>
</g>
</g>
<!-- Node1&#45;&gt;Node4 -->
<g id="edge3_Node000001_Node000004" class="edge">
<title>Node1&#45;&gt;Node4</title>
<g id="a_edge3_Node000001_Node000004"><a xlink:title=" ">
<path fill="none" stroke="#63b8ff" d="M45.12,-291.39C48.4,-323.02 63.06,-418.37 122.5,-457 175.14,-491.2 207.22,-484.3 263.75,-457 302.15,-438.46 329.46,-395.27 343.93,-367.14"/>
<polygon fill="#63b8ff" stroke="#63b8ff" points="346.89,-369.06 348.17,-358.54 340.61,-365.96 346.89,-369.06"/>
</a>
</g>
</g>
<!-- Node5 -->
<g id="Node000005" class="node">
<title>Node5</title>
<g id="a_Node000005"><a xlink:href="group__sht30__interface__driver.html#ga94657bb5470a92b24d805759a6436f35" target="_top" xlink:title="interface delay ms">
<polygon fill="white" stroke="#666666" points="258.12,-448 128.12,-448 128.12,-428 258.12,-428 258.12,-448"/>
<text xml:space="preserve" text-anchor="middle" x="193.12" y="-434.5" font-family="Helvetica,sans-Serif" font-size="10.00">sht30_interface_delay_ms</text>
</a>
</g>
</g>
<!-- Node1&#45;&gt;Node5 -->
<g id="edge4_Node000001_Node000005" class="edge">
<title>Node1&#45;&gt;Node5</title>
<g id="a_edge4_Node000001_Node000005"><a xlink:title=" ">
<path fill="none" stroke="#63b8ff" d="M47.02,-291.12C54.56,-316.7 77.92,-384.35 122.5,-419 124.03,-420.19 125.63,-421.3 127.28,-422.35"/>
<polygon fill="#63b8ff" stroke="#63b8ff" points="125.45,-425.34 135.93,-426.9 128.71,-419.15 125.45,-425.34"/>
</a>
</g>
</g>
<!-- Node6 -->
<g id="Node000006" class="node">
<title>Node6</title>
<g id="a_Node000006"><a xlink:href="group__sht30__interface__driver.html#ga329ba6e22612ff70c19e81689e40d72d" target="_top" xlink:title="interface iic bus deinit">
<polygon fill="white" stroke="#666666" points="242,-410 144.25,-410 144.25,-378 242,-378 242,-410"/>
<text xml:space="preserve" text-anchor="start" x="152.25" y="-396.5" font-family="Helvetica,sans-Serif" font-size="10.00">sht30_interface_iic</text>
<text xml:space="preserve" text-anchor="middle" x="193.12" y="-384.5" font-family="Helvetica,sans-Serif" font-size="10.00">_deinit</text>
</a>
</g>
</g>
<!-- Node1&#45;&gt;Node6 -->
<g id="edge5_Node000001_Node000006" class="edge">
<title>Node1&#45;&gt;Node6</title>
<g id="a_edge5_Node000001_Node000006"><a xlink:title=" ">
<path fill="none" stroke="#63b8ff" d="M50.95,-291.48C63.09,-309.71 90.49,-347.36 122.5,-369 125.95,-371.33 129.64,-373.47 133.46,-375.43"/>
<polygon fill="#63b8ff" stroke="#63b8ff" points="131.86,-378.55 142.4,-379.58 134.8,-372.2 131.86,-378.55"/>
</a>
</g>
</g>
<!-- Node7 -->
<g id="Node000007" class="node">
<title>Node7</title>
<g id="a_Node000007"><a xlink:href="group__sht30__interface__driver.html#ga2e05f722f22d4447ce27b7678cc48c1a" target="_top" xlink:title="interface iic bus init">
<polygon fill="white" stroke="#666666" points="251,-360 135.25,-360 135.25,-340 251,-340 251,-360"/>
<text xml:space="preserve" text-anchor="middle" x="193.12" y="-346.5" font-family="Helvetica,sans-Serif" font-size="10.00">sht30_interface_iic_init</text>
</a>
</g>
</g>
<!-- Node1&#45;&gt;Node7 -->
<g id="edge6_Node000001_Node000007" class="edge">
<title>Node1&#45;&gt;Node7</title>
<g id="a_edge6_Node000001_Node000007"><a xlink:title=" ">
<path fill="none" stroke="#63b8ff" d="M57.67,-291.37C72.71,-302.56 98.18,-320.21 122.5,-331 126.57,-332.81 130.85,-334.48 135.21,-336.01"/>
<polygon fill="#63b8ff" stroke="#63b8ff" points="134.09,-339.33 144.68,-339.1 136.26,-332.67 134.09,-339.33"/>
</a>
</g>
</g>
<!-- Node8 -->
<g id="Node000008" class="node">
<title>Node8</title>
<g id="a_Node000008"><a xlink:href="group__sht30__interface__driver.html#ga2ad7a08fd8fb954e555b6d8e293d5f09" target="_top" xlink:title="interface iic bus read with 16 bits register address">
<polygon fill="white" stroke="#666666" points="242,-322 144.25,-322 144.25,-290 242,-290 242,-322"/>
<text xml:space="preserve" text-anchor="start" x="152.25" y="-308.5" font-family="Helvetica,sans-Serif" font-size="10.00">sht30_interface_iic</text>
<text xml:space="preserve" text-anchor="middle" x="193.12" y="-296.5" font-family="Helvetica,sans-Serif" font-size="10.00">_read_address16</text>
</a>
</g>
</g>
<!-- Node1&#45;&gt;Node8 -->
<g id="edge7_Node000001_Node000008" class="edge">
<title>Node1&#45;&gt;Node8</title>
<g id="a_edge7_Node000001_Node000008"><a xlink:title=" ">
<path fill="none" stroke="#63b8ff" d="M86.63,-288.16C100.98,-290.59 117.29,-293.35 132.71,-295.96"/>
<polygon fill="#63b8ff" stroke="#63b8ff" points="131.82,-299.35 142.26,-297.57 132.98,-292.45 131.82,-299.35"/>
</a>
</g>
</g>
<!-- Node9 -->
<g id="Node000009" class="node">
<title>Node9</title>
<g id="a_Node000009"><a xlink:href="group__sht30__interface__driver.html#ga4b623473e35942df94e0aeb885ecae31" target="_top" xlink:title="interface iic bus write with 16 bits register address">
<polygon fill="white" stroke="#666666" points="242,-272 144.25,-272 144.25,-240 242,-240 242,-272"/>
<text xml:space="preserve" text-anchor="start" x="152.25" y="-258.5" font-family="Helvetica,sans-Serif" font-size="10.00">sht30_interface_iic</text>
<text xml:space="preserve" text-anchor="middle" x="193.12" y="-246.5" font-family="Helvetica,sans-Serif" font-size="10.00">_write_address16</text>
</a>
</g>
</g>
<!-- Node1&#45;&gt;Node9 -->
<g id="edge8_Node000001_Node000009" class="edge">
<title>Node1&#45;&gt;Node9</title>
<g id="a_edge8_Node000001_Node000009"><a xlink:title=" ">
<path fill="none" stroke="#63b8ff" d="M86.63,-273.84C100.98,-271.41 117.29,-268.65 132.71,-266.04"/>
<polygon fill="#63b8ff" stroke="#63b8ff" points="132.98,-269.55 142.26,-264.43 131.82,-262.65 132.98,-269.55"/>
</a>
</g>
</g>
<!-- Node10 -->
<g id="Node000010" class="node">
<title>Node10</title>
<g id="a_Node000010"><a xlink:href="group__sht30__interface__driver.html#ga5587717b349727a3df3ed2fa60f61a21" target="_top" xlink:title="interface receive callback">
<polygon fill="white" stroke="#666666" points="252.88,-222 133.38,-222 133.38,-190 252.88,-190 252.88,-222"/>
<text xml:space="preserve" text-anchor="start" x="141.38" y="-208.5" font-family="Helvetica,sans-Serif" font-size="10.00">sht30_interface_receive</text>
<text xml:space="preserve" text-anchor="middle" x="193.12" y="-196.5" font-family="Helvetica,sans-Serif" font-size="10.00">_callback</text>
</a>
</g>
</g>
<!-- Node1&#45;&gt;Node10 -->
<g id="edge9_Node000001_Node000010" class="edge">
<title>Node1&#45;&gt;Node10</title>
<g id="a_edge9_Node000001_Node000010"><a xlink:title=" ">
<path fill="none" stroke="#63b8ff" d="M58.39,-270.59C73.64,-259.69 98.91,-242.59 122.5,-231 125.42,-229.57 128.44,-228.17 131.52,-226.82"/>
<polygon fill="#63b8ff" stroke="#63b8ff" points="132.82,-230.07 140.72,-223 130.14,-223.61 132.82,-230.07"/>
</a>
</g>
</g>
<!-- Node11 -->
<g id="Node000011" class="node">
<title>Node11</title>
<g id="a_Node000011"><a xlink:href="group__sht30__base__driver.html#gaa68a1e258875b22fab56affb4ca00708" target="_top" xlink:title="set the iic address pin">
<polygon fill="white" stroke="#666666" points="243.5,-172 142.75,-172 142.75,-152 243.5,-152 243.5,-172"/>
<text xml:space="preserve" text-anchor="middle" x="193.12" y="-158.5" font-family="Helvetica,sans-Serif" font-size="10.00">sht30_set_addr_pin</text>
</a>
</g>
</g>
<!-- Node1&#45;&gt;Node11 -->
<g id="edge11_Node000001_Node000011" class="edge">
<title>Node1&#45;&gt;Node11</title>
<g id="a_edge11_Node000001_Node000011"><a xlink:title=" ">
<path fill="none" stroke="#63b8ff" d="M49.36,-270.73C60.04,-250.36 86.7,-204.8 122.5,-181 125.53,-178.99 128.76,-177.19 132.12,-175.58"/>
<polygon fill="#63b8ff" stroke="#63b8ff" points="133.16,-178.93 141.07,-171.88 130.49,-172.47 133.16,-178.93"/>
</a>
</g>
</g>
<!-- Node12 -->
<g id="Node000012" class="node">
<title>Node12</title>
<g id="a_Node000012"><a xlink:href="group__sht30__base__driver.html#ga859d865b9e4e270d5506aacbb4ecbcf7" target="_top" xlink:title="set the chip art">
<polygon fill="white" stroke="#666666" points="230.75,-134 155.5,-134 155.5,-114 230.75,-114 230.75,-134"/>
<text xml:space="preserve" text-anchor="middle" x="193.12" y="-120.5" font-family="Helvetica,sans-Serif" font-size="10.00">sht30_set_art</text>
</a>
</g>
</g>
<!-- Node1&#45;&gt;Node12 -->
<g id="edge12_Node000001_Node000012" class="edge">
<title>Node1&#45;&gt;Node12</title>
<g id="a_edge12_Node000001_Node000012"><a xlink:title=" ">
<path fill="none" stroke="#63b8ff" d="M47.02,-270.88C54.56,-245.3 77.92,-177.65 122.5,-143 128.89,-138.04 136.48,-134.37 144.27,-131.66"/>
<polygon fill="#63b8ff" stroke="#63b8ff" points="145.23,-135.02 153.85,-128.85 143.27,-128.3 145.23,-135.02"/>
</a>
</g>
</g>
<!-- Node13 -->
<g id="Node000013" class="node">
<title>Node13</title>
<g id="a_Node000013"><a xlink:href="group__sht30__base__driver.html#ga97ebef0db0c6054ed652a78820c5cc87" target="_top" xlink:title="enable or disable the chip heater">
<polygon fill="white" stroke="#666666" points="238.62,-96 147.62,-96 147.62,-76 238.62,-76 238.62,-96"/>
<text xml:space="preserve" text-anchor="middle" x="193.12" y="-82.5" font-family="Helvetica,sans-Serif" font-size="10.00">sht30_set_heater</text>
</a>
</g>
</g>
<!-- Node1&#45;&gt;Node13 -->
<g id="edge13_Node000001_Node000013" class="edge">
<title>Node1&#45;&gt;Node13</title>
<g id="a_edge13_Node000001_Node000013"><a xlink:title=" ">
<path fill="none" stroke="#63b8ff" d="M45.69,-270.86C50.52,-240.72 68.97,-150.96 122.5,-105 126.68,-101.41 131.47,-98.5 136.55,-96.13"/>
<polygon fill="#63b8ff" stroke="#63b8ff" points="137.78,-99.41 145.84,-92.54 135.26,-92.88 137.78,-99.41"/>
</a>
</g>
</g>
<!-- Node14 -->
<g id="Node000014" class="node">
<title>Node14</title>
<g id="a_Node000014"><a xlink:href="group__sht30__base__driver.html#ga39acd935e4e0aaebd5fc5dea20914a54" target="_top" xlink:title="set the measurement repeatability">
<polygon fill="white" stroke="#666666" points="251.38,-58 134.88,-58 134.88,-38 251.38,-38 251.38,-58"/>
<text xml:space="preserve" text-anchor="middle" x="193.12" y="-44.5" font-family="Helvetica,sans-Serif" font-size="10.00">sht30_set_repeatability</text>
</a>
</g>
</g>
<!-- Node1&#45;&gt;Node14 -->
<g id="edge14_Node000001_Node000014" class="edge">
<title>Node1&#45;&gt;Node14</title>
<g id="a_edge14_Node000001_Node000014"><a xlink:title=" ">
<path fill="none" stroke="#63b8ff" d="M44.81,-270.72C47.25,-236.38 59.88,-124.56 122.5,-67 123.56,-66.02 124.67,-65.09 125.82,-64.21"/>
<polygon fill="#63b8ff" stroke="#63b8ff" points="127.35,-67.38 134,-59.14 123.66,-61.43 127.35,-67.38"/>
</a>
</g>
</g>
<!-- Node15 -->
<g id="Node000015" class="node">
<title>Node15</title>
<g id="a_Node000015"><a xlink:href="group__sht30__base__driver.html#ga2a22612a45d166fba7ed9b6099ba49f7" target="_top" xlink:title="start reading">
<polygon fill="white" stroke="#666666" points="263.75,-20 122.5,-20 122.5,0 263.75,0 263.75,-20"/>
<text xml:space="preserve" text-anchor="middle" x="193.12" y="-6.5" font-family="Helvetica,sans-Serif" font-size="10.00">sht30_start_continuous_read</text>
</a>
</g>
</g>
<!-- Node1&#45;&gt;Node15 -->
<g id="edge15_Node000001_Node000015" class="edge">
<title>Node1&#45;&gt;Node15</title>
<g id="a_edge15_Node000001_Node000015"><a xlink:title=" ">
<path fill="none" stroke="#63b8ff" d="M44.16,-270.58C44.43,-232.34 50.67,-98.38 122.5,-29 123.27,-28.26 124.06,-27.54 124.88,-26.86"/>
<polygon fill="#63b8ff" stroke="#63b8ff" points="126.79,-29.79 133.17,-21.33 122.91,-23.96 126.79,-29.79"/>
</a>
</g>
</g>
<!-- Node10&#45;&gt;Node4 -->
<g id="edge10_Node000010_Node000004" class="edge">
<title>Node10&#45;&gt;Node4</title>
<g id="a_edge10_Node000010_Node000004"><a xlink:title=" ">
<path fill="none" stroke="#63b8ff" d="M248.75,-222.39C254.02,-224.91 259.12,-227.77 263.75,-231 296.25,-253.67 323.93,-290.65 340.23,-315.39"/>
<polygon fill="#63b8ff" stroke="#63b8ff" points="337.14,-317.05 345.49,-323.58 343.03,-313.27 337.14,-317.05"/>
</a>
</g>
</g>
</g>
</svg>
