<?xml version="1.0" encoding="UTF-8" standalone="no"?>
<!DOCTYPE svg PUBLIC "-//W3C//DTD SVG 1.1//EN"
 "http://www.w3.org/Graphics/SVG/1.1/DTD/svg11.dtd">
<!-- Generated by graphviz version 13.1.0 (20250701.0955)
 -->
<!-- Title: sht30 driver function Pages: 1 -->
<svg width="277pt" height="254pt"
 viewBox="0.00 0.00 277.00 254.00" xmlns="http://www.w3.org/2000/svg" xmlns:xlink="http://www.w3.org/1999/xlink">
<g id="graph0" class="graph" transform="scale(1 1) rotate(0) translate(4 250)">
<title>sht30 driver function</title>
<!-- Node3 -->
<g id="Node000003" class="node">
<title>Node3</title>
<g id="a_Node000003"><a xlink:href="group__sht30__base__driver.html" target="_top" xlink:title="sht30 base driver modules">
<polygon fill="white" stroke="#666666" points="269,-246 140.5,-246 140.5,-226 269,-226 269,-246"/>
<text xml:space="preserve" text-anchor="middle" x="204.75" y="-232.5" font-family="Helvetica,sans-Serif" font-size="10.00">sht30 base driver function</text>
</a>
</g>
</g>
<!-- Node1 -->
<g id="Node000001" class="node">
<title>Node1</title>
<g id="a_Node000001"><a xlink:title="sht30 driver modules">
<polygon fill="#999999" stroke="#666666" points="104.5,-127 0,-127 0,-107 104.5,-107 104.5,-127"/>
<text xml:space="preserve" text-anchor="middle" x="52.25" y="-113.5" font-family="Helvetica,sans-Serif" font-size="10.00">sht30 driver function</text>
</a>
</g>
</g>
<!-- Node1&#45;&gt;Node3 -->
<g id="edge2" class="edge">
<title>Node1&#45;&gt;Node3</title>
<path fill="none" stroke="black" d="M65.7,-137.1C80.73,-159.74 108.07,-196.09 140.5,-217 145.8,-220.42 151.74,-223.24 157.81,-225.57"/>
<polygon fill="black" stroke="black" points="68.69,-135.28 60.33,-128.77 62.8,-139.07 68.69,-135.28"/>
</g>
<!-- Node6 -->
<g id="Node000006" class="node">
<title>Node6</title>
<g id="a_Node000006"><a xlink:href="group__sht30__example__driver.html" target="_top" xlink:title="sht30 example driver modules">
<polygon fill="white" stroke="#666666" points="258.12,-208 151.38,-208 151.38,-176 258.12,-176 258.12,-208"/>
<text xml:space="preserve" text-anchor="start" x="159.38" y="-194.5" font-family="Helvetica,sans-Serif" font-size="10.00">sht30 example driver</text>
<text xml:space="preserve" text-anchor="middle" x="204.75" y="-182.5" font-family="Helvetica,sans-Serif" font-size="10.00"> function</text>
</a>
</g>
</g>
<!-- Node1&#45;&gt;Node6 -->
<g id="edge5" class="edge">
<title>Node1&#45;&gt;Node6</title>
<path fill="none" stroke="black" d="M79.39,-133.3C96.45,-143.6 119.39,-156.85 140.5,-167 146.67,-169.97 153.29,-172.88 159.84,-175.6"/>
<polygon fill="black" stroke="black" points="81.24,-130.33 70.88,-128.1 77.59,-136.3 81.24,-130.33"/>
</g>
<!-- Node4 -->
<g id="Node000004" class="node">
<title>Node4</title>
<g id="a_Node000004"><a xlink:href="group__sht30__extend__driver.html" target="_top" xlink:title="sht30 extend driver modules">
<polygon fill="white" stroke="#666666" points="254.38,-158 155.12,-158 155.12,-126 254.38,-126 254.38,-158"/>
<text xml:space="preserve" text-anchor="start" x="163.12" y="-144.5" font-family="Helvetica,sans-Serif" font-size="10.00">sht30 extend driver</text>
<text xml:space="preserve" text-anchor="middle" x="204.75" y="-132.5" font-family="Helvetica,sans-Serif" font-size="10.00"> function</text>
</a>
</g>
</g>
<!-- Node1&#45;&gt;Node4 -->
<g id="edge3" class="edge">
<title>Node1&#45;&gt;Node4</title>
<path fill="none" stroke="black" d="M115.83,-127.4C128.78,-129.55 142.25,-131.78 154.64,-133.84"/>
<polygon fill="black" stroke="black" points="116.55,-123.97 106.12,-125.78 115.41,-130.87 116.55,-123.97"/>
</g>
<!-- Node5 -->
<g id="Node000005" class="node">
<title>Node5</title>
<g id="a_Node000005"><a xlink:href="group__sht30__interface__driver.html" target="_top" xlink:title="sht30 interface driver modules">
<polygon fill="white" stroke="#666666" points="258.5,-108 151,-108 151,-76 258.5,-76 258.5,-108"/>
<text xml:space="preserve" text-anchor="start" x="159" y="-94.5" font-family="Helvetica,sans-Serif" font-size="10.00">sht30 interface driver</text>
<text xml:space="preserve" text-anchor="middle" x="204.75" y="-82.5" font-family="Helvetica,sans-Serif" font-size="10.00"> function</text>
</a>
</g>
</g>
<!-- Node1&#45;&gt;Node5 -->
<g id="edge4" class="edge">
<title>Node1&#45;&gt;Node5</title>
<path fill="none" stroke="black" d="M115.95,-106.58C127.46,-104.67 139.37,-102.7 150.56,-100.84"/>
<polygon fill="black" stroke="black" points="115.41,-103.13 106.12,-108.22 116.55,-110.03 115.41,-103.13"/>
</g>
<!-- Node2 -->
<g id="Node000002" class="node">
<title>Node2</title>
<g id="a_Node000002"><a xlink:href="group__sht30__link__driver.html" target="_top" xlink:title="sht30 link driver modules">
<polygon fill="white" stroke="#666666" points="266,-58 143.5,-58 143.5,-38 266,-38 266,-58"/>
<text xml:space="preserve" text-anchor="middle" x="204.75" y="-44.5" font-family="Helvetica,sans-Serif" font-size="10.00">sht30 link driver function</text>
</a>
</g>
</g>
<!-- Node1&#45;&gt;Node2 -->
<g id="edge1" class="edge">
<title>Node1&#45;&gt;Node2</title>
<path fill="none" stroke="black" d="M78.48,-100.48C95.49,-89.87 118.72,-76.37 140.5,-67 147.87,-63.83 155.94,-60.97 163.78,-58.49"/>
<polygon fill="black" stroke="black" points="76.61,-97.52 70.04,-105.84 80.36,-103.43 76.61,-97.52"/>
</g>
<!-- Node7 -->
<g id="Node000007" class="node">
<title>Node7</title>
<g id="a_Node000007"><a xlink:href="group__sht30__test__driver.html" target="_top" xlink:title="sht30 test driver modules">
<polygon fill="white" stroke="#666666" points="266.75,-20 142.75,-20 142.75,0 266.75,0 266.75,-20"/>
<text xml:space="preserve" text-anchor="middle" x="204.75" y="-6.5" font-family="Helvetica,sans-Serif" font-size="10.00">sht30 test driver function</text>
</a>
</g>
</g>
<!-- Node1&#45;&gt;Node7 -->
<g id="edge6" class="edge">
<title>Node1&#45;&gt;Node7</title>
<path fill="none" stroke="black" d="M67.66,-97.57C83.44,-77.62 110.52,-47 140.5,-29 146.1,-25.64 152.35,-22.83 158.67,-20.49"/>
<polygon fill="black" stroke="black" points="64.91,-95.4 61.59,-105.46 70.46,-99.67 64.91,-95.4"/>
</g>
</g>
</svg>
